<?xml version="1.0" encoding="UTF-8"?>
<svg id="Layer_2" data-name="Layer 2" xmlns="http://www.w3.org/2000/svg" viewBox="0 0 86.73 86.73">
  <defs>
    <style>
      .cls-1 {
        fill: #fff;
        stroke-width: 0px;
      }
    </style>
  </defs>
  <g id="Layer_1-2" data-name="Layer 1">
    <path class="cls-1" d="M86.73,42.37h-6.42v-.06s-.06-1.94-.06-1.94h-.06c-1.45-17.99-15.84-32.38-33.83-33.83v-.06l-1.94-.05h-.06V0h-2v6.42h-.06s-1.94.06-1.94.06v.06C22.37,7.99,7.99,22.37,6.53,40.37h-.06l-.05,1.94v.06H0v2h6.42v.06s.06,1.94.06,1.94h.06c1.45,17.99,15.84,32.38,33.83,33.83v.06l1.94.05h.06v6.42h2v-6.42h.06s1.94-.06,1.94-.06v-.06c17.99-1.45,32.38-15.84,33.83-33.83h.06l.05-1.94v-.06h6.42v-2ZM78.34,43.37c0,.34-.02.67-.03,1h-7.82c.01-.33.03-.66.03-1s-.01-.67-.03-1h7.82c0,.33.03.66.03,1ZM44.37,78.31c-.33,0-.66.03-1,.03s-.67-.02-1-.03v-7.82c.33.01.66.03,1,.03s.67-.01,1-.03v7.82ZM8.4,43.37c0-.34.02-.67.03-1h7.83c-.01.33-.03.66-.03,1s.01.67.03,1h-7.83c0-.33-.03-.66-.03-1ZM42.37,8.42c.33,0,.66-.03,1-.03s.67.02,1,.03v7.82c-.33-.01-.66-.03-1-.03s-.67.01-1,.03v-7.82ZM68.48,42.32v.05s-24.12,0-24.12,0v-24.12h.05c13.03.54,23.53,11.04,24.07,24.07ZM18.25,44.42v-.05s24.12,0,24.12,0v24.12h-.05c-13.03-.54-23.53-11.04-24.07-24.07ZM78.19,40.37h-7.86c-1.39-12.57-11.39-22.57-23.96-23.96v-7.86c16.89,1.44,30.38,14.93,31.82,31.82ZM40.37,8.54v7.86c-12.57,1.39-22.57,11.39-23.96,23.96h-7.86c1.44-16.89,14.93-30.38,31.83-31.82ZM8.54,46.37h7.86c1.39,12.57,11.39,22.57,23.96,23.96v7.86c-16.89-1.44-30.38-14.93-31.83-31.82ZM46.37,78.19v-7.86c12.57-1.39,22.57-11.39,23.96-23.96h7.86c-1.44,16.89-14.93,30.38-31.82,31.82Z"/>
  </g>
</svg>