<?xml version="1.0" encoding="UTF-8"?>
<svg id="Layer_2" data-name="Layer 2" xmlns="http://www.w3.org/2000/svg" viewBox="0 0 99.52 99.52">
  <defs>
    <style>
      .cls-1 {
        fill: #fff;
        stroke-width: 0px;
      }
    </style>
  </defs>
  <g id="Layer_1-2" data-name="Layer 1">
    <g>
      <path class="cls-1" d="M92.1,48.76c-.53-22.56-18.77-40.81-41.34-41.33V0h-2v7.43C26.2,7.95,7.95,26.2,7.43,48.76H0v2h7.43c.53,22.56,18.77,40.81,41.33,41.33v7.43h2v-7.43c22.56-.53,40.81-18.77,41.34-41.33h7.43v-2h-7.43ZM50.76,90.1v-15.61c-.33.01-.66.03-1,.03s-.67-.01-1-.03v15.61c-21.46-.53-38.81-17.88-39.33-39.33h15.61c-.01-.33-.03-.66-.03-1s.01-.67.03-1h-15.61c.53-21.46,17.88-38.81,39.33-39.33v15.61c.33-.01.66-.03,1-.03s.67.01,1,.03v-15.61c21.46.53,38.81,17.88,39.34,39.33h-15.61c.01.33.03.66.03,1s-.01.67-.03,1h15.61c-.53,21.46-17.88,38.81-39.34,39.33Z"/>
      <path class="cls-1" d="M34.04,46.1c-.22.95-.35,1.94-.4,2.94h10.56l-10.16-2.94Z"/>
      <path class="cls-1" d="M42.4,46.47l-7.02-3.99-7.46-4.24c-.69,1.31-1.27,2.68-1.72,4.11l8.33,2.12,7.88,2Z"/>
      <path class="cls-1" d="M36.38,40.74l4.61,2.66-3.73-3.84-6-6.17-8.92-9.17c-1.67,1.8-3.18,3.75-4.48,5.85l11.08,6.38,7.44,4.28Z"/>
      <path class="cls-1" d="M49.05,44.11v-10.47c-1,.04-1.98.17-2.92.39l2.92,10.08Z"/>
      <path class="cls-1" d="M46.47,42.31l-1.98-7.79-2.12-8.33c-1.42.45-2.79,1.02-4.09,1.71l4.24,7.47,3.95,6.95Z"/>
      <path class="cls-1" d="M39.61,37.22l3.78,3.68-2.62-4.55-4.28-7.44-6.38-11.08c-2.09,1.29-4.05,2.79-5.84,4.46l9.17,8.92,6.17,6Z"/>
      <path class="cls-1" d="M65.48,46.09l-10.2,2.95h10.6c-.04-1.01-.18-2-.4-2.95Z"/>
      <path class="cls-1" d="M71.6,38.21l-7.46,4.24-7.05,4.01,7.91-2.01,8.33-2.12c-.45-1.43-1.03-2.81-1.73-4.12Z"/>
      <path class="cls-1" d="M62.24,39.54l-3.75,3.86,4.64-2.67,7.44-4.28,11.08-6.38c-1.3-2.1-2.81-4.06-4.49-5.86l-8.92,9.17-6,6.16Z"/>
      <path class="cls-1" d="M50.44,33.64v10.47l2.92-10.09c-.94-.22-1.92-.34-2.92-.38Z"/>
      <path class="cls-1" d="M56.98,35.34l4.24-7.47c-1.3-.68-2.67-1.26-4.1-1.7l-2.12,8.33-1.99,7.81,3.96-6.97Z"/>
      <path class="cls-1" d="M56.09,40.9l3.8-3.7,6.17-6,9.17-8.92c-1.8-1.67-3.75-3.16-5.85-4.46l-6.38,11.08-4.28,7.44-2.63,4.56Z"/>
      <path class="cls-1" d="M33.64,50.48c.04,1.01.17,1.99.4,2.94l10.16-2.94h-10.56Z"/>
      <path class="cls-1" d="M27.91,61.29l7.46-4.24,7.02-3.99-7.88,2-8.33,2.12c.45,1.43,1.03,2.8,1.72,4.11Z"/>
      <path class="cls-1" d="M37.26,59.96l3.73-3.84-4.61,2.66-7.44,4.28-11.08,6.38c1.3,2.1,2.8,4.05,4.48,5.85l8.92-9.17,6-6.17Z"/>
      <path class="cls-1" d="M49.05,65.88v-10.47l-2.92,10.08c.94.22,1.92.34,2.92.39Z"/>
      <path class="cls-1" d="M42.51,64.17l-4.24,7.47c1.3.69,2.67,1.26,4.09,1.71l2.12-8.33,1.98-7.79-3.95,6.95Z"/>
      <path class="cls-1" d="M43.4,58.62l-3.78,3.68-6.17,6-9.17,8.92c1.79,1.67,3.75,3.17,5.84,4.46l6.38-11.08,4.28-7.44,2.62-4.55Z"/>
      <path class="cls-1" d="M65.48,53.43c.22-.95.35-1.94.4-2.95h-10.6l10.2,2.95Z"/>
      <path class="cls-1" d="M71.6,61.31c.69-1.31,1.28-2.68,1.73-4.12l-8.33-2.12-7.91-2.01,7.05,4.01,7.46,4.24Z"/>
      <path class="cls-1" d="M63.13,58.8l-4.64-2.67,3.75,3.86,6,6.16,8.92,9.17c1.68-1.8,3.19-3.76,4.49-5.86l-11.08-6.38-7.44-4.28Z"/>
      <path class="cls-1" d="M50.44,65.88c1-.04,1.98-.17,2.92-.38l-2.92-10.09v10.47Z"/>
      <path class="cls-1" d="M53.02,57.22l1.99,7.81,2.12,8.33c1.43-.45,2.8-1.02,4.1-1.7l-4.24-7.47-3.96-6.97Z"/>
      <path class="cls-1" d="M59.89,62.32l-3.8-3.7,2.63,4.56,4.28,7.44,6.38,11.08c2.1-1.29,4.05-2.79,5.85-4.46l-9.17-8.92-6.17-6Z"/>
    </g>
  </g>
</svg>