<?xml version="1.0" encoding="UTF-8"?>
<svg id="Layer_2" data-name="Layer 2" xmlns="http://www.w3.org/2000/svg" viewBox="0 0 27.24 100.03">
  <defs>
    <style>
      .cls-1 {
        fill: #fff;
        stroke-width: 0px;
      }
    </style>
  </defs>
  <g id="Layer_1-2" data-name="Layer 1">
    <path class="cls-1" d="M8.49,81.18L.27,88.96c-.34.33-.36.87-.04,1.22l2.2,2.39c.24.26.61.35.95.22l8.8-3.37-3.7-8.23Z"/>
    <path class="cls-1" d="M18.75,81.18l8.22,7.78c.34.33.36.87.04,1.22l-2.2,2.39c-.24.26-.61.35-.95.22l-8.8-3.37,3.7-8.23Z"/>
    <path class="cls-1" d="M12.1,98.81l-5.24-23.8c-.44-2-.66-4.04-.66-6.08V7.42C6.2,3.32,9.52,0,13.62,0h0c4.1,0,7.42,3.32,7.42,7.42v61.51c0,2.05-.22,4.08-.66,6.08l-5.24,23.8c-.36,1.63-2.68,1.63-3.04,0Z"/>
    <path class="cls-1" d="M6.43,97.43l1.9.44c1.34.31,2.73.31,4.06,0l2.62-.6-2.62-.6c-1.34-.31-2.73-.31-4.06,0l-1.9.44c-.18.04-.18.29,0,.33Z"/>
    <path class="cls-1" d="M20.81,97.43l-1.9.44c-1.34.31-2.73.31-4.06,0l-2.62-.6,2.62-.6c1.34-.31,2.73-.31,4.06,0l1.9.44c.18.04.18.29,0,.33Z"/>
  </g>
</svg>